<?xml version="1.0" encoding="UTF-8" standalone="no"?>
<!-- Generator: Adobe Illustrator 16.0.0, SVG Export Plug-In . SVG Version: 6.00 Build 0)  -->

<svg
   xmlns:dc="http://purl.org/dc/elements/1.1/"
   xmlns:cc="http://creativecommons.org/ns#"
   xmlns:rdf="http://www.w3.org/1999/02/22-rdf-syntax-ns#"
   xmlns:svg="http://www.w3.org/2000/svg"
   xmlns="http://www.w3.org/2000/svg"
   xmlns:xlink="http://www.w3.org/1999/xlink"
   xmlns:sodipodi="http://sodipodi.sourceforge.net/DTD/sodipodi-0.dtd"
   xmlns:inkscape="http://www.inkscape.org/namespaces/inkscape"
   version="1.1"
   id="Layer_1"
   x="0px"
   y="0px"
   width="512px"
   height="512px"
   viewBox="0 0 512 512"
   enable-background="new 0 0 512 512"
   xml:space="preserve"
   sodipodi:docname="icon.svg"
   inkscape:export-filename="icon.cur.png"
   inkscape:export-xdpi="90.444656"
   inkscape:export-ydpi="90.444656"
   inkscape:version="0.92.4 5da689c313, 2019-01-14"><metadata
   id="metadata831"><rdf:RDF><cc:Work
       rdf:about=""><dc:format>image/svg+xml</dc:format><dc:type
         rdf:resource="http://purl.org/dc/dcmitype/StillImage" /><dc:title /></cc:Work></rdf:RDF></metadata><defs
   id="defs829"><linearGradient
     inkscape:collect="always"
     id="linearGradient1533"><stop
       style="stop-color:#00e9ff;stop-opacity:1"
       offset="0"
       id="stop1529" /><stop
       style="stop-color:#c700ff;stop-opacity:1"
       offset="1"
       id="stop1531" /></linearGradient><linearGradient
     inkscape:collect="always"
     xlink:href="#linearGradient1533"
     id="linearGradient1535"
     x1="-1.2075472"
     y1="415.39624"
     x2="512"
     y2="97.811317"
     gradientUnits="userSpaceOnUse" /></defs><sodipodi:namedview
   pagecolor="#ffffff"
   bordercolor="#666666"
   borderopacity="1"
   objecttolerance="10"
   gridtolerance="10"
   guidetolerance="10"
   inkscape:pageopacity="0"
   inkscape:pageshadow="2"
   inkscape:window-width="1920"
   inkscape:window-height="1006"
   id="namedview827"
   showgrid="false"
   inkscape:zoom="1.4142136"
   inkscape:cx="291.02205"
   inkscape:cy="280.67778"
   inkscape:window-x="0"
   inkscape:window-y="0"
   inkscape:window-maximized="1"
   inkscape:current-layer="Layer_1" />
<path
   d="M320,128c52.563,0,95.375,42.438,96,94.813c-0.25,1.938-0.438,3.875-0.5,5.875l-0.813,23.5l22.25,7.75  C462.688,268.906,480,293.063,480,320c0,35.313-28.688,64-64,64H96c-35.281,0-64-28.688-64-64c0-34.938,28.188-63.438,63-64  c1.5,0.219,3.063,0.406,4.625,0.5l24.313,1.594l8-22.969C140.938,209.313,165.063,192,192,192c3.125,0,6.563,0.375,11.188,1.188  l22.406,4.031l11.156-19.844C253.875,146.938,285.75,128,320,128 M320,96c-47.938,0-89.219,26.688-111.156,65.688  C203.375,160.719,197.781,160,192,160c-41.938,0-77.219,27.063-90.281,64.563C99.813,224.438,97.969,224,96,224c-53,0-96,43-96,96  s43,96,96,96h320c53,0,96-43,96-96c0-41.938-27.063-77.25-64.563-90.313C447.5,227.75,448,225.938,448,224  C448,153.313,390.688,96,320,96L320,96z"
   id="path824"
   style="fill-opacity:1;fill:url(#linearGradient1535)" />
<rect
   id="rect4604"
   width="646.45392"
   height="17.488026"
   x="-321.62692"
   y="355.14301"
   style="fill:#ff2a00;fill-opacity:1;stroke-width:1.26012743"
   transform="matrix(0.70557542,-0.70863484,0.70557542,0.70863484,0,0)"
   ry="8.7440128" /></svg>